<svg xmlns="http://www.w3.org/2000/svg" version="1.1" xmlns:xlink="http://www.w3.org/1999/xlink" width="512" height="512" x="0" y="0" viewBox="0 0 512 512" style="enable-background:new 0 0 512 512" xml:space="preserve" class=""><circle r="256" cx="256" cy="256" fill="#2d628b" shape="circle"></circle><g transform="matrix(0.6300000000000002,0,0,0.6300000000000002,94.20135227203366,90.03892993926996)"><path fill="#a5112a" d="M69.1 348.7 67.2 336c-2.7-52.2-.5-119.2 17.2-194.3 7.9-33.6 16-77.7 53.5-102.5 25.3 25.3 25.1 62.6 50.3 87.9z" opacity="1" data-original="#a5112a" class=""></path><path fill="#228c66" d="M52.9 334.3c-2.2 2.7 1.3 7.6 4.8 9.9-2.7-.1-6.2.8-7.5 1-4.2 1-8.4 3.7-6.8 8.8 1.8 6.2 10.8 9.9 17.7 8.9-1.7 3.6-2.5 8 1.2 9.4 5 1.8 7.6-7 7.8-12.2 1.4 4.8 7.9 11.4 11.9 9.9 2.7-1.1 2.4-5.3 1.4-7.6-.5-1-1.2-1.9-2-2.8 2.1-.1 5.3-.5 5.7-2 .6-1.9-3.4-4.2-6.9-5.4 5.2-.4 11.1-4.4 11.2-9.3 0-4.9-5.5-7.2-9.6-6.9-2.7.2-5.2 1.4-7.4 3-.5-3.1-2-6.3-5-7.7-4.1-1.9-6.8.9-7.9 4.5-.5-.4-1-.7-1.6-1-2-1.1-5.4-2.5-7-.5z" opacity="1" data-original="#228c66" class=""></path><path fill="#ca0f26" d="m250.2 484.6-84.3 1.5c-14 .2-25.4-12-25-26.9.4-13.7 10.8-24.7 23.7-25.1l113.8-3.2-4.3 31.3c-1.7 12.7-11.8 22.2-23.9 22.4zM405.9 475l-68.6-.4c-15.6-.1-33.5-14.3-33.5-30l2-27.8c.2-2.5 2.3-4.5 4.8-4.6l94.6-3.3c2.1-.1 4.1 1.2 4.8 3.2l4.4 11.6c15.7.8 29.7 17 23 31.2-5.5 12.3-17.9 20.1-31.5 20.1z" opacity="1" data-original="#ca0f26" class=""></path><path fill="#af623c" d="m280.7 241.4-60.5 6.5c-32.8 3.5-61.8-19.7-63.6-51.1l-2.2-37.4c-1.7-29.3 21-54.9 51.6-58.3l57.4-6.4c31.2-3.5 59.3 17.3 63.5 46.8l5.3 37.3c4.2 30.8-19 59.2-51.5 62.6z" opacity="1" data-original="#af623c" class=""></path><path fill="#af623c" d="m186.9 324.2-86.5-49.9c-11.5-6.6-14.4-23.5-6.4-37.1l4.4-7.5c7-11.9 20.1-17.4 30.8-12.9l91 38.2c12.2 5.1 16.7 21.2 10.1 35.5l-9 19.2c-6.8 14.6-22.7 21.3-34.4 14.5zM345.4 296.4l79.1-78.1c10.5-10.4 9.8-28.2-1.7-39.1l-6.3-6.1c-10-9.6-24.9-10.7-35.1-2.8L295 238.4c-11.6 9.1-12.7 26.6-2.5 38.7l13.7 16.2c10.4 12.3 28.5 13.7 39.2 3.1z" opacity="1" data-original="#af623c" class=""></path><path fill="#af623c" d="M278.3 446.8c-.2 2.4-2.1 4.3-4.5 4.5-15.7 1.5-35.9 1.8-58.8-1.8-20.2-3.2-37.2-8.7-50.7-14.2-2.1-.8-3.3-2.9-3.1-5.1 7-68.6 14.1-137.3 21.1-205.9.3-2.7 2.7-4.7 5.5-4.5l106.9 10.6c2.7.3 4.8 2.7 4.5 5.5z" opacity="1" data-original="#af623c" class=""></path><path fill="#af623c" d="M302.3 441.5c.9 1.8 2.9 2.9 4.9 2.7 15.3-1.4 37-1.3 57.4-9.8 17.7-7.3 30.4-15.7 41.2-23.5 1.8-1.3 2.5-3.6 1.8-5.7-20.8-59.6-30.9-85.2-51.7-144.7-.8-2.2-2.9-3.5-5.2-3.3l-129.2 11.1c-3.5.3-5.6 4.1-4 7.3z" opacity="1" data-original="#af623c" class=""></path><circle cx="226" cy="180.9" r="4" fill="#090505" opacity="1" data-original="#090505" class=""></circle><circle cx="267.9" cy="172.7" r="4" fill="#090505" opacity="1" data-original="#090505" class=""></circle><path fill="#090505" d="M237.8 210.7c-8.1 0-14.6-2-19.5-6-8.3-6.8-8.7-16.7-8.7-17.1 0-1.1.8-2 1.9-2.1 1.1 0 2 .8 2.1 1.9 0 .2.5 8.6 7.3 14.2 5.8 4.7 14.5 6.2 25.8 4.3 13.7-2.2 23.5-8.1 29.1-17.3 4.1-6.8 4.3-13 4.3-13.1 0-1.1.9-2 2-2s2 .9 2 2c0 .3-1.1 28.4-36.8 34.2-3.3.7-6.5 1-9.5 1z" opacity="1" data-original="#090505" class=""></path><path fill="#fdb8cb" d="m194.2 215.7-4.3.2c-6.1.3-11.3-4.5-11.5-10.7l-.1-3.6c-.2-5.9 4.5-10.9 10.4-11.2l3.7-.2c5.4-.3 10.2 3.4 11.3 8.7l.7 3.5c1.4 6.7-3.5 12.9-10.2 13.3zM307 199.3l-4.9 1.3c-5.8 1.5-11.6-2-13-7.8l-1-4.1c-1.4-5.6 2-11.2 7.6-12.7l4.2-1.1c5-1.4 10.3 1.2 12.4 5.9l1.8 3.9c2.5 6-.8 13-7.1 14.6z" opacity="1" data-original="#fdb8cb"></path><path fill="#241726" d="M231.2 149.7c-1.8 0-4.4-.7-6.7-4-1.8 2-4.7 3.2-7.5 3-4.9-.4-6.6-8.1-6.7-8.4-.1-.5.2-1.1.8-1.2.5-.1 1.1.2 1.2.8.4 1.8 2 6.6 4.9 6.8 2.4.2 4.7-1 5.8-2.3.2-.2.3-.4.4-.6-.4-.8-.8-1.8-1.1-2.8v-.2c-.1-1.3.6-1.9 1.3-1.9 1.1-.1 2.2 1.2 2.4 2.9.1.7 0 1.4-.2 2.1 1.5 2.6 3.5 4 5.7 3.9 2.5-.1 4.9-2.1 6.2-4.8-2.3-3.1-1.5-4.8-1.2-5.3.5-.8 1.5-1 2.4-.6 1 .5 2 1.9 1.3 4.6-.1.3-.2.7-.3 1l.4.4c2.1 2.1 4.4 2.8 6.3 2.1 2.4-.9 4.2-3.8 4.6-7.6-1.7-1.2-3.1-3-3.1-4.6 0-1 .4-1.9 1.3-2.4l.2-.1c1-.4 1.7-.1 2.1.2 1.1.8 1.5 2.5 1.5 5.8.1.1.2.1.4.2.8.4 2.9 1.3 4.4.3 3-1.9 4-7.2 3.3-9.9-.1-.5.2-1.1.7-1.2s1.1.2 1.2.7c.9 3.3-.3 9.6-4.1 12.1-1.6 1-3.8 1-6.1-.1-.7 4.2-2.9 7.3-5.8 8.4-2.7 1-5.6.1-8.3-2.4-1.6 2.9-4.5 5-7.5 5.1h-.2zm6.8-10.8c0 .1-.1.6.4 1.6 0-1.2-.3-1.6-.4-1.6zm12.4-6.7c-.2.2-.3.4-.3.6 0 .5.4 1.3 1.1 2-.1-2-.5-2.5-.7-2.6z" opacity="1" data-original="#241726" class=""></path><path fill="#dac127" d="m250.4 188.1-6.6.7c-5 .5-9.4-3.2-9.8-8.2l-.2-3c-.4-4.4 2.6-8.5 7-9.4l5.9-1.3c4.7-1 9.5 1.9 10.6 6.6l.9 3.6c1.2 5.3-2.4 10.5-7.8 11z" opacity="1" data-original="#f8d917" class=""></path><path fill="#090505" d="m270.4 301.5-2.5.5c-4.8.9-9.3-2.3-10.1-7-.7-4.2 1.8-8.4 5.9-9.6l2.4-.8c4.5-1.4 9.2 1 10.7 5.4l.1.3c1.7 4.9-1.3 10.2-6.5 11.2zM276.6 347.1l-2.5.5c-4.8.9-9.3-2.3-10.1-7-.7-4.2 1.8-8.4 5.9-9.6l2.4-.8c4.5-1.4 9.2 1 10.7 5.4l.1.3c1.7 4.9-1.4 10.2-6.5 11.2z" opacity="1" data-original="#090505" class=""></path><g fill="#ece4d9"><path d="M273.4 441.1c-.5 0-.9-.2-1.2-.6l-7.3-9.5c-.5-.7-.4-1.6.3-2.1s1.6-.4 2.1.3l7.3 9.5c.5.7.4 1.6-.3 2.1-.2.2-.6.3-.9.3zm-26.1-2c-.5 0-.9-.2-1.2-.6-.5-.7-.3-1.6.4-2.1l9.9-6.8c.7-.5 1.6-.3 2.1.4s.3 1.6-.4 2.1l-9.9 6.8c-.3.1-.6.2-.9.2zm-8.1-4.4c-.4 0-.9-.2-1.2-.6l-7.3-9.5c-.5-.7-.4-1.6.3-2.1s1.6-.4 2.1.3l7.3 9.5c.5.7.4 1.6-.3 2.1-.3.2-.6.3-.9.3zm-26.4 0c-.5 0-.9-.2-1.2-.6-.5-.7-.3-1.6.4-2.1l9.9-6.8c.7-.5 1.6-.3 2.1.4s.3 1.6-.4 2.1l-9.9 6.8c-.4.1-.6.2-.9.2zm-34.6-4.4c-.5 0-.9-.2-1.2-.6-.5-.7-.3-1.6.4-2.1l9.9-6.8c.7-.5 1.6-.3 2.1.4s.3 1.6-.4 2.1l-9.9 6.8c-.3.1-.6.2-.9.2zm26.8-2.1c-.5 0-.9-.2-1.2-.6l-7.3-9.5c-.5-.7-.4-1.6.3-2.1s1.6-.4 2.1.3l7.3 9.5c.5.7.4 1.6-.3 2.1-.3.2-.6.3-.9.3zm-34.3-6.4c-.4 0-.9-.2-1.2-.6l-7.3-9.5c-.5-.7-.4-1.6.3-2.1s1.6-.4 2.1.3l7.3 9.5c.5.7.4 1.6-.3 2.1-.2.2-.6.3-.9.3zM275.3 424.6c-.5 0-.9-.2-1.2-.6l-7.3-9.5c-.5-.7-.4-1.6.3-2.1s1.6-.4 2.1.3l7.3 9.5c.5.7.4 1.6-.3 2.1-.3.2-.6.3-.9.3zm-26.2-2.1c-.5 0-1-.2-1.2-.7-.5-.7-.3-1.6.4-2.1l9.9-6.7c.7-.5 1.6-.3 2.1.4s.3 1.6-.4 2.1l-9.9 6.7c-.3.2-.6.3-.9.3zm-8-4.5c-.5 0-.9-.2-1.2-.6l-7.3-9.5c-.5-.7-.4-1.6.3-2.1s1.6-.4 2.1.3l7.3 9.5c.5.7.4 1.6-.3 2.1-.3.2-.6.3-.9.3zm-26.5-.1c-.5 0-1-.2-1.2-.7-.5-.7-.3-1.6.4-2.1l9.9-6.7c.7-.5 1.6-.3 2.1.4s.3 1.6-.4 2.1l-9.9 6.7c-.3.2-.6.3-.9.3zm-34.5-4.6c-.5 0-1-.2-1.2-.7-.5-.7-.3-1.6.4-2.1l9.9-6.7c.7-.5 1.6-.3 2.1.4s.3 1.6-.4 2.1L181 413c-.4.2-.7.3-.9.3zm26.7-1.9c-.5 0-.9-.2-1.2-.6l-7.3-9.6c-.5-.7-.4-1.6.3-2.1s1.6-.4 2.1.3l7.3 9.6c.5.7.4 1.6-.3 2.1-.2.2-.5.3-.9.3zm-34.2-6.7c-.5 0-.9-.2-1.2-.6l-7.3-9.6c-.5-.7-.4-1.6.3-2.1s1.6-.4 2.1.3l7.3 9.6c.5.7.4 1.6-.3 2.1-.2.2-.6.3-.9.3zM319 439.7c-.2 0-.4 0-.6-.1-.8-.3-1.1-1.2-.8-2l4.7-11c.3-.8 1.2-1.1 2-.8s1.1 1.2.8 2l-4.7 11c-.3.6-.9.9-1.4.9zm-10.3-2.9c-.2 0-.4 0-.6-.1l-11-4.7c-.8-.3-1.1-1.2-.8-2s1.2-1.1 2-.8l11 4.7c.8.3 1.1 1.2.8 2-.3.6-.8.9-1.4.9zm32.2-10.7c-.2 0-.4 0-.6-.1l-11-4.7c-.8-.3-1.1-1.2-.8-2s1.2-1.1 2-.8l11 4.7c.8.3 1.1 1.2.8 2-.3.6-.9.9-1.4.9zm8.8-.8c-.2 0-.4 0-.6-.1-.8-.3-1.1-1.2-.8-2l4.7-11c.3-.8 1.2-1.1 2-.8s1.1 1.2.8 2l-4.7 11c-.3.5-.9.9-1.4.9zm23.4-9.9c-.2 0-.4 0-.6-.1l-11-4.7c-.8-.3-1.1-1.2-.8-2s1.2-1.1 2-.8l11 4.7c.8.3 1.1 1.2.8 2-.3.5-.9.9-1.4.9zm7.3-4.6c-.2 0-.4 0-.6-.1-.8-.3-1.1-1.2-.8-2l4.7-11c.3-.8 1.2-1.1 2-.8s1.1 1.2.8 2l-4.7 11c-.3.6-.9.9-1.4.9zm24.9-6.2c-.2 0-.4 0-.6-.1l-11-4.7c-.8-.3-1.1-1.2-.8-2s1.2-1.1 2-.8l11 4.7c.8.3 1.1 1.2.8 2-.3.6-.9.9-1.4.9zM311.9 424.2c-.2 0-.4 0-.5-.1-.8-.3-1.2-1.2-.8-1.9L315 411c.3-.8 1.2-1.1 1.9-.8.8.3 1.2 1.2.8 1.9l-4.4 11.2c-.2.5-.8.9-1.4.9zm-10.5-2.7c-.2 0-.4 0-.5-.1l-11.2-4.2c-.8-.3-1.2-1.2-.9-1.9.3-.8 1.2-1.2 1.9-.9l11.2 4.2c.8.3 1.2 1.2.9 1.9s-.8 1-1.4 1zm31.9-12.3c-.2 0-.4 0-.5-.1l-11.2-4.2c-.8-.3-1.2-1.2-.9-1.9s1.2-1.2 1.9-.9l11.2 4.2c.8.3 1.2 1.2.9 1.9-.2.6-.8 1-1.4 1zm9.2-.4c-.2 0-.4 0-.5-.1-.8-.3-1.2-1.2-.8-1.9l4.4-11.2c.3-.8 1.2-1.1 1.9-.8.8.3 1.2 1.2.8 1.9l-4.4 11.2c-.3.5-.8.9-1.4.9zm22.7-12c-.2 0-.4 0-.5-.1l-11.2-4.2c-.8-.3-1.2-1.2-.9-1.9s1.2-1.2 1.9-.9l11.2 4.2c.8.3 1.2 1.2.9 1.9-.2.6-.8 1-1.4 1zm7.8-3.5c-.2 0-.4 0-.5-.1-.8-.3-1.2-1.2-.8-1.9l4.4-11.2c.3-.8 1.2-1.2 1.9-.8.8.3 1.2 1.2.8 1.9l-4.4 11.2c-.2.5-.8.9-1.4.9zm24.1-8.9c-.2 0-.4 0-.5-.1l-11.2-4.2c-.8-.3-1.2-1.2-.9-1.9.3-.8 1.2-1.2 1.9-.9l11.2 4.2c.8.3 1.2 1.2.9 1.9-.2.6-.8 1-1.4 1zM423.9 218.5c-.3 0-.5-.1-.7-.3-2.5-2.5-2.4-5.2-2.3-7.6.1-2.3.2-4.3-1.7-6.1-1.9-1.9-3.9-1.7-6.1-1.5-2.4.2-5.2.4-7.7-2.1s-2.4-5.2-2.3-7.6c.1-2.3.2-4.3-1.7-6.1-1.9-1.9-3.9-1.7-6.1-1.5-2.4.2-5.1.4-7.7-2.1-2.5-2.5-2.4-5.2-2.3-7.6.1-2.3.2-4.3-1.7-6.1-.4-.4-.4-1 0-1.4s1-.4 1.4 0c2.5 2.5 2.4 5.2 2.3 7.6-.1 2.3-.2 4.3 1.7 6.1 1.9 1.9 3.9 1.7 6.1 1.5 2.4-.2 5.2-.4 7.7 2.1s2.4 5.2 2.3 7.6c-.1 2.3-.2 4.3 1.7 6.1 1.9 1.9 3.9 1.7 6.1 1.5 2.4-.2 5.2-.4 7.7 2.1s2.4 5.2 2.3 7.6c-.1 2.3-.2 4.3 1.7 6.1.4.4.4 1 0 1.4-.2.2-.4.3-.7.3zM415.5 227.7c-.3 0-.5-.1-.7-.3-2.5-2.7-2.2-5.5-2-8 .2-2.4.5-4.4-1.4-6.4s-3.9-1.9-6.3-1.8c-2.5.1-5.4.3-7.9-2.4s-2.2-5.5-2-8c.2-2.4.5-4.4-1.4-6.4s-4-1.9-6.3-1.8c-2.5.1-5.4.3-7.9-2.4s-2.2-5.5-2-8c.2-2.4.5-4.4-1.4-6.4-.4-.4-.4-1 0-1.4s1-.4 1.4 0c2.5 2.7 2.2 5.5 2 8-.2 2.4-.5 4.4 1.4 6.4s3.9 1.9 6.3 1.8c2.5-.1 5.4-.3 7.9 2.4s2.2 5.5 2 8c-.2 2.4-.5 4.4 1.4 6.4s4 1.9 6.3 1.8c2.5-.1 5.4-.3 7.9 2.4s2.2 5.5 2 8c-.2 2.4-.5 4.4 1.4 6.4.4.4.4 1 0 1.4-.2.2-.5.3-.7.3zM94.1 267.5c-.2 0-.4 0-.5-.2-.5-.3-.6-.9-.3-1.4 1.9-3 4.8-3.2 7.4-3.4 2.5-.2 4.6-.4 5.9-2.5s.6-4.1-.4-6.4c-1-2.4-2.1-5.2-.2-8.2s4.8-3.2 7.4-3.4c2.5-.2 4.6-.3 5.9-2.5 1.3-2.1.6-4.1-.4-6.4-1-2.4-2.1-5.2-.2-8.2s4.8-3.2 7.4-3.4c2.5-.2 4.6-.3 5.9-2.5.3-.5.9-.6 1.4-.3s.6.9.3 1.4c-1.9 3-4.8 3.2-7.4 3.4-2.5.2-4.6.3-5.9 2.5-1.3 2.1-.6 4.1.4 6.4 1 2.4 2.1 5.2.2 8.2s-4.8 3.2-7.4 3.4c-2.5.2-4.6.3-5.9 2.5-1.3 2.1-.6 4.1.4 6.4 1 2.4 2.1 5.2.2 8.2s-4.8 3.2-7.4 3.4c-2.5.2-4.6.4-5.9 2.5-.3.3-.6.5-.9.5z" fill="#ece4d9" opacity="1" data-original="#ece4d9" class=""></path><path d="M103 274.9c-.2 0-.3 0-.5-.1-.5-.3-.6-.9-.4-1.4 1.8-3.2 5-3.5 7.8-3.8 2.6-.3 4.9-.5 6.2-2.8s.4-4.4-.7-6.8c-1.1-2.5-2.4-5.4-.6-8.6s5-3.5 7.8-3.8c2.6-.3 4.9-.5 6.2-2.8s.4-4.4-.7-6.8c-1.1-2.5-2.4-5.4-.6-8.6s5-3.5 7.8-3.8c2.6-.3 4.9-.5 6.2-2.8.3-.5.9-.6 1.4-.4.5.3.6.9.4 1.4-1.8 3.2-5 3.5-7.8 3.8-2.6.3-4.9.5-6.2 2.8s-.4 4.4.7 6.8c1.1 2.5 2.4 5.4.6 8.6s-5 3.5-7.8 3.8c-2.6.3-4.9.5-6.2 2.8s-.4 4.4.7 6.8c1.1 2.5 2.4 5.4.6 8.6s-5 3.5-7.8 3.8c-2.6.3-4.9.5-6.2 2.8-.3.3-.6.5-.9.5zM267.7 247.5l5.8-1.1c1-.2 1.9.5 2 1.4s-.5 1.9-1.4 2l-5.8 1.1 1.4 7.8c11.5 4.8 17.4 2.1 17.8 2 .3-.1.6-.4.8-.7.3-.4 2.5-4.5.7-14.6s-5.4-13.1-5.8-13.4c-.3-.2-.6-.4-1-.4-.1 0-1 0-2.5.2-3 .5-7.3 2.1-13.4 7.9zM235.6 269.5c.3.2.6.4 1 .4.3 0 6.8.4 15.9-8.1l-1.4-7.8-5.8 1.1c-1 .2-1.9-.5-2-1.4s.5-1.9 1.4-2l5.8-1.1-1.4-7.8c-7.7-3.2-12.3-3.2-15.3-2.7-1.5.3-2.3.6-2.4.7-.3.1-.6.4-.8.7-.3.4-2.5 4.5-.7 14.6s5.3 13.1 5.7 13.4zM266.2 259.2 256 261l-3.4-18.7 10.2-1.9z" fill="#ece4d9" opacity="1" data-original="#ece4d9" class=""></path></g><path fill="#ca0f26" d="M339.7 125.8c-19.6-7.1-63.3-19.9-117.8-10.1-44.7 8.1-76.5 27.7-93 39.6-6.4-20.4-12.8-40.8-19.1-61.2C101.3 66.6 129.3 36 158 31c40.7-7.2 88.6-5.5 141 31.4 27.6 19.3 36.4 49 40.7 63.4z" opacity="1" data-original="#ca0f26" class=""></path><path fill="#ece4d9" d="M127.4 144.2c-26.5 22.3 23.1 62.1 29.3 36.9 19.4-78.3 148-85.4 172.3-26.1 1.9 4.5 22.6-10.8 16.6-28.7s-31.3-24.8-31.3-24.8-13.7-35.7-54.9-33.1c-30.6 1.9-36.9 24.2-36.9 24.2s-21.1-15.3-42.1-3.8c-12.8 7-14.5 22.9-14.5 22.9-23.6-9.5-42.1 14.7-38.5 32.5z" opacity="1" data-original="#ece4d9" class=""></path></g></svg>
