<svg xmlns="http://www.w3.org/2000/svg" version="1.1" xmlns:xlink="http://www.w3.org/1999/xlink" width="512" height="512" x="0" y="0" viewBox="0 0 512 512" style="enable-background:new 0 0 512 512" xml:space="preserve" class=""><g><path fill="#34222e" d="m322.2 470.3-92.4 9.7-4-47.6 92.4-7.7z" opacity="1" data-original="#34222e"></path><path fill="#228c66" d="M426.6 409.4c2.7 3.1.8 7.9-3.3 8.3-38 3.6-75.9 7.4-113.8 11.4-62.2 6.4-124.3 13.3-186.4 20.5-4.2.5-7.1-4.1-4.8-7.7 21.1-33.7 42.2-67.3 63.3-101 .8-1.3 2.2-2.2 3.7-2.3l161.1-17.3c1.6-.2 3.2.5 4.3 1.7z" opacity="1" data-original="#228c66" class=""></path><path fill="#187250" d="M351.4 327 175 354.5c-.8.1 1.6-4.8 2-5.6l6.7-10.7c.2-.3.4-.4.8-.5L348.3 322c.3 0 .6.1.8.3l2.9 3c.6.6.2 1.6-.6 1.7z" opacity="1" data-original="#187250"></path><path fill="#090505" d="m226.735 437.84 91.242-8.987.44 4.477-91.24 8.987z" opacity="1" data-original="#090505" class=""></path><path fill="#228c66" d="M403.9 318c2.8 3.5 0 8.6-4.4 8.2-15.5-1.6-31.6-3.2-48.2-2.3-47.3 2.5-94.2 9.8-215.8 27.3-4 .6-7.1-3.6-5.2-7.3 18.5-36 39.6-73.3 57.8-109.2.7-1.4 2.1-2.4 3.7-2.7l123.1-19.9c1.8-.3 3.6.4 4.7 1.8z" opacity="1" data-original="#228c66" class=""></path><path fill="#187250" d="m323 221.4-140.6 28.5c-.8.2-1.5-.7-1.1-1.4l5.1-10.6c.1-.3.4-.5.8-.6l133.3-20.6c.4-.1.7.1.9.4l2.2 2.8c.5.4.2 1.3-.6 1.5z" opacity="1" data-original="#187250"></path><path fill="#228c66" d="M351.2 204.4c2.6 2.9 1.1 7.5-2.8 8.3-26.8 5.4-52.7 12.9-81.7 17-39.7 5.6-78.1 10.1-115.1 13.6-3.6.3-6.4-3.2-5.2-6.6 8-23.9 20.2-53 39.3-83.8 17.2-27.8 35.5-49.8 51.4-66.4l7.4.1z" opacity="1" data-original="#228c66" class=""></path><circle cx="230.5" cy="141.1" r="2.4" fill="#090505" opacity="1" data-original="#090505" class=""></circle><circle cx="256" cy="138.2" r="2.4" fill="#090505" opacity="1" data-original="#090505" class=""></circle><path fill="#090505" d="M238.7 160c-6.2 0-11-1.6-14.3-4.8-4.7-4.6-4.5-10.7-4.5-10.9 0-.8.7-1.5 1.6-1.4.8 0 1.5.7 1.4 1.6 0 .1-.1 5.1 3.6 8.7 3.2 3.1 8.3 4.4 15.1 3.8 19.5-1.5 21.3-15.7 21.4-16.3.1-.8.8-1.4 1.7-1.3.8.1 1.4.8 1.3 1.6 0 .2-2.1 17.3-24.2 19h-3.1z" opacity="1" data-original="#090505" class=""></path><path fill="#ca0f26" d="m203.8 159.3-2.1-.1c-2.9-.1-5.2-2.6-5-5.5l.1-1.7c.2-2.8 2.5-5 5.4-4.9l1.7.1c2.6.1 4.7 2 5 4.6l.2 1.7c.4 3.1-2.1 5.9-5.3 5.8zM280.8 151.8l-2.4.4c-2.8.5-5.4-1.4-5.9-4.2l-.3-2c-.4-2.7 1.4-5.2 4.1-5.7l2-.4c2.4-.4 4.8 1 5.6 3.3l.7 1.9c1.1 3-.7 6.1-3.8 6.7z" opacity="1" data-original="#ca0f26" class=""></path><path fill="#ece4d9" d="M231.7 121.2h-.4c-1.4-.1-3.6-.7-5.2-3.6l-.1.1c-1.3 1.3-3.8 2.4-6.5 2.1-3.9-.5-4.6-6.3-4.6-6.5 0-.3.2-.5.4-.6.3 0 .5.2.6.4 0 .1.6 5.2 3.8 5.6 2.3.3 4.6-.7 5.7-1.8.1-.1.2-.2.3-.4-.3-.7-.5-1.4-.8-2.3v-.2c0-.8.5-1.2.9-1.1.7 0 1.4.9 1.4 2.1 0 .5-.1 1-.4 1.6 1.1 2.1 2.6 3.3 4.5 3.5 2.4.1 4.9-1.4 6.3-3.6-1.6-2.3-1-3.5-.7-3.8.4-.5 1.2-.7 1.8-.3.7.4 1.2 1.5.5 3.2-.1.3-.2.6-.4.8.1.1.2.3.4.5 1.7 1.8 3.7 2.5 5.6 2 2.2-.6 4.1-2.9 4.8-6-1.2-1-2.3-2.3-2.2-3.6.1-.7.5-1.2 1.1-1.5.9-.2 1.4 0 1.6.3.9.8.8 2.6.6 4.4 1.6 1 3.3 1.3 4.5.7 3-1.5 4.2-5.8 3.8-7.7 0-.3.1-.5.4-.6s.5.1.6.4c.4 2.4-1.1 7.1-4.4 8.8-1.5.7-3.4.5-5.2-.6-.9 3.3-2.9 5.7-5.4 6.3-2.3.6-4.6-.2-6.6-2.3l-.2-.2c-1.4 2.4-4.1 3.9-6.5 3.9zm6.3-7.9c-.1 0-.2 0-.3.1-.2.3-.3 1 .4 2.2 0-.1.1-.2.1-.3.4-1.1.3-1.8-.1-2h-.1zm-12.1.9c.1.4.2.7.3 1 0-.4-.2-.8-.3-1zm23.3-5.5h-.3c-.4.2-.5.5-.5.7 0 .6.5 1.6 1.4 2.4.2-2 0-2.7-.3-3-.1 0-.1-.1-.3-.1z" opacity="1" data-original="#ece4d9" class=""></path><path fill="#f8d917" d="M228.4 67.7s8.5-24.5 9.4-23.5S249.1 65 249.1 65l19.5 1.5-13.2 15.9 13 23.6-29.8-11.4-23.5 17.5 8.8-28.7-20-9.9z" opacity="1" data-original="#f8d917" class=""></path><g fill="#ece4d9"><path d="M180.1 167.5c.3.9.6 1.9 1 2.8.3.9.7 1.8 1.1 2.7.3.8 0 1.6-.8 1.9s-1.6 0-1.9-.8c0-.1-.1-.2-.1-.4-.1-1-.2-2.1-.2-3.1s0-2.1.2-3.1c0-.2.2-.4.5-.3 0 0 .1.1.2.3zM188.3 183.3c1.2 1.5 2.5 3 3.9 4.3s2.8 2.6 4.4 3.7 1.9 3.3.8 4.9-3.3 1.9-4.9.8c-.1 0-.1-.1-.2-.1-1.8-1.5-3.5-3.1-4.9-4.8-1.5-1.8-2.8-3.7-3.9-5.6-.8-1.4-.3-3.1 1.1-3.9 1.2-.7 2.8-.4 3.7.7zM206.6 197.1c3.6 1.6 7.4 3 11.4 4 1.1.3 1.8 1.4 1.5 2.5-.2 1-1.1 1.6-2 1.6-4.4-.1-8.9-.5-13.2-1.7-1.8-.5-2.8-2.4-2.3-4.2s2.4-2.8 4.2-2.3c.2-.1.3 0 .4.1zM230.4 202.4c4.2 0 8.4-.2 12.6-.6h.1c.9-.1 1.7.6 1.8 1.5s-.6 1.7-1.5 1.8h-.3c-4.3-.3-8.5-.3-12.7-.2-.7 0-1.2-.5-1.2-1.2s.5-1.3 1.2-1.3zM255.6 200c2.1-.4 4.2-.7 6.2-1 2.1-.3 4.2-.5 6.3-.8h.1c2-.2 3.8 1.2 4 3.2s-1.2 3.8-3.2 4h-.3c-2.1.1-4.2.1-6.4.1-2.1 0-4.3 0-6.4-.1-1.6-.1-2.8-1.4-2.7-2.9 0-1.2 1-2.3 2.4-2.5zM280.6 196.6c2.1-.3 4.2-.6 6.3-.8 1-.1 2.1-.2 3.1-.3s2.1-.2 3.1-.3h.1c2.4-.2 4.4 1.6 4.6 3.9s-1.5 4.2-3.7 4.5c-1.1.1-2.1.2-3.2.4-1.1.1-2.1.2-3.2.3-2.1.2-4.2.4-6.3.5-2.3.2-4.3-1.6-4.4-3.8-.2-2.1 1.4-4 3.6-4.4zM305.7 194.2c2.1-.1 4.2-.3 6.3-.4l6.3-.3c1.6 0 2.9 1.2 2.9 2.8 0 1.4-.9 2.6-2.2 2.9-2.1.5-4.2.9-6.2 1.3-2.1.4-4.2.8-6.2 1.2-2.1.4-4.1-1-4.5-3s1-4.1 3-4.5zM331 193.2c2 0 4 0 6.1.1.2 0 .4.2.4.4s-.1.3-.3.4c-1.9.7-3.8 1.3-5.8 1.9-.7.2-1.5-.2-1.7-.9s.2-1.5.9-1.7c.2-.2.3-.2.4-.2z" fill="#ece4d9" opacity="1" data-original="#ece4d9" class=""></path></g><g fill="#ece4d9"><path d="M344.9 246c-.8 1.8-1.8 3.7-2.7 5.5-.4.7-1.3 1-2 .6s-1-1.3-.6-2c.1-.1.1-.2.2-.3 1.4-1.4 2.8-2.9 4.3-4.3.2-.2.5-.2.7 0 .2.1.2.3.1.5zM336 261.4c-2.3 3.1-4.7 6.2-7.1 9.2-1.3 1.6-3.7 1.9-5.3.6s-1.9-3.7-.6-5.3c.1-.1.2-.2.3-.4l.2-.2c2.7-2.6 5.4-5.2 8.2-7.8l.1-.1c1.2-1.1 3-1 4 .2.9 1.2 1 2.7.2 3.8zM320.9 279.2c-1.4 1.3-2.9 2.7-4.3 4-1.5 1.3-2.9 2.6-4.4 3.9-1.9 1.6-4.7 1.4-6.3-.5s-1.4-4.7.4-6.3l.2-.2c1.4-1.2 2.8-2.4 4.3-3.6 1.4-1.2 2.9-2.4 4.3-3.6l.2-.2c1.8-1.5 4.5-1.2 6 .6 1.4 1.8 1.2 4.4-.4 5.9zM302.6 294c-3.3 2.1-6.9 3.9-10.4 5.5-1.6.7-3.5 0-4.2-1.6-.6-1.4-.2-3 1-3.9 3-2.2 5.9-4.5 8.9-6.9 1.8-1.4 4.4-1.1 5.9.7s1.1 4.4-.7 5.9c-.2.1-.4.2-.5.3zM281.3 304c-1.8.7-3.7 1.3-5.5 2-1.8.6-3.7 1.3-5.5 1.9-.8.3-1.7-.2-1.9-1s.2-1.6.9-1.9c1.8-.7 3.5-1.4 5.2-2.2s3.4-1.7 5-2.6c1-.6 2.3-.2 2.9.8s.2 2.3-.8 2.9c-.1 0-.2.1-.3.1zM259.1 311.1l-5.7 1.2c-.9.2-1.9.5-2.9.6l-2.8.5c-1.2.2-2.4-.6-2.7-1.8-.2-1.2.6-2.4 1.8-2.7h.3l2.8-.2c1 0 1.9-.2 2.8-.3 1.9-.2 3.7-.4 5.6-.7h.1c.9-.1 1.7.5 1.8 1.4.3 1-.3 1.8-1.1 2zM236.2 315.6l-5.8.8-5.8.7c-2.3.3-4.3-1.3-4.6-3.6s1.3-4.3 3.6-4.6h.7l5.7.1 5.7.2h.1c1.8.1 3.2 1.6 3.1 3.3.1 1.6-1.1 2.8-2.7 3.1zM213 317.6l-11.7-.1c-2.8 0-5-2.3-5-5.1s2.3-5 5.1-5h.6l11.2.9h.3c2.5.2 4.4 2.4 4.2 5-.3 2.5-2.3 4.3-4.7 4.3zM189.4 316.5c-2-.3-3.9-.5-5.9-.9s-3.9-.8-5.9-1.3c-2.9-.7-4.6-3.6-3.8-6.5.7-2.8 3.5-4.5 6.3-3.9 1.8.4 3.5.8 5.4 1.1 1.8.3 3.6.7 5.4.9 2.9.4 4.9 3.2 4.5 6.1s-3.1 4.9-6 4.5zM166.1 310.4c-1.9-.8-3.8-1.8-5.6-2.9s-3.6-2.4-5.3-3.9c-1.8-1.7-2-4.5-.3-6.4 1.6-1.7 4.1-2 6-.6l.1.1c1.3.9 2.7 1.7 4.2 2.5 1.5.7 3.1 1.4 4.8 2 2.6 1 4 3.9 3 6.5s-3.9 4-6.5 3c-.2-.3-.3-.3-.4-.3zM148.8 290.5c.1-2.6.8-5 1.9-7 1-2 2.4-3.8 3.8-5.3 1-1.1 2.8-1.2 3.9-.1 1 .9 1.1 2.3.5 3.4v.1c-.9 1.5-1.6 3-2.1 4.5s-.6 2.9-.4 4.2c.3 2.1-1.1 4-3.1 4.4-2.1.3-4-1.1-4.4-3.1 0-.2-.1-.5-.1-.7zM164 270.8c1.8-1 3.6-1.9 5.4-2.8.2-.1.6 0 .7.2s.1.4-.1.6c-1.4 1.4-2.9 2.8-4.3 4.2l-.1.1c-.6.5-1.5.5-2 0-.5-.6-.5-1.5 0-2 .2-.2.3-.2.4-.3z" fill="#ece4d9" opacity="1" data-original="#ece4d9" class=""></path></g><g fill="#ece4d9"><path d="M170.8 357.5c.6.7 1.3 1.5 2 2.2l2.1 2.1c.6.6.6 1.5.1 2.1-.6.6-1.5.6-2.1.1-.1-.1-.2-.2-.3-.4-.5-.9-1-1.8-1.4-2.8s-.8-1.9-1.2-2.9c-.1-.3.1-.6.3-.6.2-.1.4 0 .5.2zM184.3 369.7l2.5 1.8c.8.6 1.7 1.1 2.5 1.7 1.7 1.1 3.4 2.2 5.1 3.2 1.8 1.1 2.4 3.5 1.3 5.3s-3.5 2.4-5.3 1.3c-.1-.1-.2-.1-.3-.2-1.7-1.3-3.4-2.7-5-4.2-.8-.7-1.6-1.5-2.4-2.3s-1.5-1.5-2.3-2.4c-1.1-1.2-1-3.1.2-4.2.9-.8 2.5-.9 3.7 0zM205 382.2c1.8.9 3.6 1.7 5.5 2.5l2.8 1.2 2.8 1.2h.1c2.3 1 3.3 3.6 2.3 5.8-.9 2.2-3.5 3.2-5.7 2.4l-3-1.2c-1-.4-2-.9-3-1.3-2-.9-3.9-1.9-5.8-3-2.1-1.2-2.9-3.8-1.7-6 1.1-1.8 3.6-2.6 5.7-1.6zM227.4 391.8c3.8 1.5 7.7 3 11.7 4.2 1.3.4 2 1.8 1.6 3.1-.4 1.1-1.5 1.8-2.6 1.7-4.2-.5-8.5-1.1-12.7-1.9-2-.4-3.3-2.4-2.9-4.4s2.4-3.3 4.4-2.9c0 .1.3.1.5.2zM251.2 399c2.1.3 4.1.5 6.2.8 2.1.2 4.1.4 6.2.6h.1c.9.1 1.5.8 1.4 1.7s-.8 1.5-1.7 1.4h-.1c-2.1-.3-4.2-.5-6.3-.8l-6.3-.6c-.9-.1-1.6-.8-1.5-1.7s.8-1.6 1.7-1.5h.1zM276.1 400.4c2.1-.2 4.2-.3 6.2-.5l3.1-.3c1-.1 2.1-.2 3.1-.3 1.8-.2 3.4 1.1 3.6 2.9s-1.1 3.4-2.9 3.6h-.5c-1.1-.1-2.1-.2-3.2-.3l-3.2-.3c-2.1-.2-4.2-.4-6.3-.5-1.2-.1-2.1-1.2-2.1-2.4.1-1.1 1-2 2.1-2.1zM301.1 398.1c4.2-.4 8.3-.7 12.5-1h.1c2.6-.2 4.9 1.7 5.1 4.4.2 2.6-1.7 4.9-4.4 5.1h-.4c-4.2 0-8.4.1-12.7 0-2.3 0-4.2-2-4.1-4.3.1-2.2 1.7-4 3.9-4.2zM326.1 396l6.2-.6c2.1-.2 4.2-.4 6.2-.5h.1c3-.2 5.5 2 5.7 5s-2 5.5-5 5.7c-2.1.1-4.2.3-6.3.4l-6.3.3c-2.8.1-5.2-2.1-5.4-4.9-.1-2.7 1.9-5.1 4.6-5.3zM351 393.9c4.1-.4 8.3-.7 12.4-.9h.1c2.6-.2 4.8 1.8 5 4.4.2 2.4-1.6 4.5-3.9 4.9-4.2.7-8.4 1.3-12.6 2-2.8.4-5.5-1.6-5.9-4.4s1.6-5.5 4.4-5.9h.3zM375.8 392c2.1-.3 4.1-.5 6.2-.7s4.1-.4 6.2-.6h.2c1.6-.1 3 1.1 3.1 2.6.1 1.4-.8 2.6-2 3-2 .6-4.1 1.2-6.2 1.7-2.1.6-4.1 1.1-6.2 1.7-2.1.5-4.2-.8-4.8-2.9-.5-2.1.8-4.2 2.9-4.8.1 0 .3-.1.4-.1zM400.6 389c1-.2 2-.3 2.9-.5l1.5-.3c.5-.1 1-.2 1.4-.3.3-.1.5.1.6.4.1.2 0 .4-.2.5-.9.6-1.8 1.1-2.7 1.6s-1.8.9-2.8 1.4c-.7.3-1.6 0-1.9-.7s0-1.6.7-1.9c.3-.1.4-.2.5-.2z" fill="#ece4d9" opacity="1" data-original="#ece4d9" class=""></path></g><path fill="#ca0f26" d="m162.8 286.6-3.1-.3c-5.9-.5-10.2-5.7-9.5-11.5.6-5.2 4.8-9.2 10.1-9.3l3.1-.1c5.7-.2 10.5 4.2 10.8 9.9v.4c.3 6.2-5.1 11.4-11.4 10.9z" opacity="1" data-original="#ca0f26" class=""></path><path fill="#f8d917" d="m169.4 295.5-1.7 1.7c-3.1 3.3-8.3 3.3-11.5.1-2.8-2.8-3.1-7.3-.7-10.5l1.4-1.9c2.6-3.5 7.6-4.2 11.1-1.6l.2.2c4 2.8 4.6 8.5 1.2 12z" opacity="1" data-original="#f8d917" class=""></path><path fill="#ca0f26" d="m265.7 318.1-3.1-.3c-5.9-.5-10.2-5.7-9.5-11.5.6-5.2 4.8-9.2 10.1-9.3l3.1-.1c5.7-.2 10.5 4.2 10.8 9.9v.4c.2 6.2-5.1 11.4-11.4 10.9z" opacity="1" data-original="#ca0f26" class=""></path><path fill="#f8d917" d="m281.3 304.4-.9 1.8c-1.7 3.5-6 4.8-9.4 3-3-1.6-4.4-5.2-3.2-8.4l.7-1.9c1.3-3.5 5.1-5.4 8.7-4.2l.2.1c4 1.4 5.8 5.9 3.9 9.6z" opacity="1" data-original="#f8d917" class=""></path><path fill="#ca0f26" d="m347.5 237.8 2.4 2c4.5 3.8 5 10.5 1.1 14.9-3.5 3.9-9.3 4.7-13.6 1.8l-2.6-1.7c-4.7-3.1-6.1-9.5-3-14.3l.2-.3c3.3-5.3 10.6-6.4 15.5-2.4z" opacity="1" data-original="#ca0f26" class=""></path><path fill="#f8d917" d="m326.8 239.9 1.8-1c3.4-1.8 7.7-.5 9.4 3 1.5 3.1.6 6.8-2.3 8.8l-1.7 1.2c-3.1 2.1-7.3 1.4-9.5-1.6l-.1-.2c-2.4-3.5-1.3-8.3 2.4-10.2z" opacity="1" data-original="#f8d917" class=""></path><path fill="#ece4d9" d="m246.4 147.7-3.8.1c-2.9.1-5.3-2.3-5.3-5.2v-1.7c0-2.6 1.9-4.8 4.5-5.1l3.5-.5c2.8-.4 5.4 1.5 5.8 4.3l.3 2.1c.5 3.1-1.9 6-5 6z" opacity="1" data-original="#ece4d9" class=""></path><path fill="#f8d917" d="m181.5 178.5-1.7.3c-3.1.6-6.1-1.6-6.6-4.7-.4-2.8 1.3-5.4 4-6.3l1.6-.5c2.9-.9 6 .7 7 3.7l.1.2c1 3.3-1.1 6.7-4.4 7.3z" opacity="1" data-original="#f8d917" class=""></path><path fill="#fdb8cb" d="m242.5 209.9-2.3 1.2c-4.3 2.3-9.7.5-11.9-3.9-1.9-3.9-.7-8.6 2.9-11.1l2.1-1.5c3.9-2.7 9.3-1.7 12 2.2l.2.2c3.1 4.4 1.7 10.5-3 12.9z" opacity="1" data-original="#fdb8cb" class=""></path><path fill="#f8d917" d="m334.6 199.3-1.7.3c-3.1.6-6.1-1.6-6.6-4.7-.4-2.8 1.3-5.4 4-6.3l1.6-.5c2.9-.9 6 .7 7 3.7l.1.2c1.1 3.3-1 6.7-4.4 7.3z" opacity="1" data-original="#f8d917" class=""></path><path fill="#ca0f26" d="m406 397.5-2.3 2.1c-4.3 4-11 3.7-15-.6-3.5-3.9-3.6-9.7-.2-13.7l2-2.4c3.7-4.3 10.1-4.9 14.6-1.4l.3.2c4.9 4.1 5.2 11.5.6 15.8z" opacity="1" data-original="#ca0f26" class=""></path><path fill="#fdb8cb" d="m406.3 376.7.8 1.9c1.4 3.6-.4 7.7-4.1 9-3.2 1.2-6.8-.2-8.4-3.3l-1-1.8c-1.7-3.3-.5-7.4 2.7-9.2l.2-.1c3.7-2 8.3-.4 9.8 3.5zM261.1 411.8l-3.1.4c-5.8.7-11.1-3.6-11.6-9.5-.5-5.2 3-9.9 8.1-11.1l3-.7c5.5-1.3 11.1 2.1 12.5 7.6l.1.3c1.6 6.2-2.7 12.3-9 13z" opacity="1" data-original="#fdb8cb" class=""></path><path fill="#f8d917" d="m273.9 395.3-.5 2c-1 3.7-4.9 5.9-8.6 4.8-3.3-1-5.3-4.3-4.8-7.7l.3-2c.6-3.7 4-6.3 7.7-5.8h.2c4.1.6 6.8 4.7 5.7 8.7z" opacity="1" data-original="#f8d917" class=""></path><path fill="#ca0f26" d="m175.9 375.8-3.1.4c-5.8.7-11.1-3.6-11.6-9.5-.5-5.2 3-9.9 8.1-11.1l3-.7c5.5-1.3 11.1 2.1 12.5 7.6l.1.3c1.5 6.1-2.7 12.3-9 13z" opacity="1" data-original="#ca0f26" class=""></path><path fill="#fdb8cb" d="m188.7 359.3-.5 2c-1 3.7-4.9 5.9-8.6 4.8-3.3-1-5.3-4.3-4.8-7.7l.3-2c.6-3.7 4-6.3 7.7-5.8h.2c4.1.6 6.8 4.7 5.7 8.7z" opacity="1" data-original="#fdb8cb" class=""></path><g fill="#264182"><path d="m77.224 102.395 4.2-2.715 21.666 33.516-4.2 2.715z" fill="#264182" opacity="1" data-original="#264182"></path><path d="m79.128 136.769 21.154-39.957 4.42 2.34-21.154 39.957z" fill="#264182" opacity="1" data-original="#264182"></path><path d="m72.285 121.698.14-5 36.5 1.022-.14 5zM432.653 311.103l4.2-2.715 15.747 24.36-4.2 2.715z" fill="#264182" opacity="1" data-original="#264182"></path><path d="m433.838 335.103 15.398-29.084 4.42 2.34-15.398 29.084z" fill="#264182" opacity="1" data-original="#264182"></path><path d="m429.692 325.252.14-5 26.5.742-.14 5zM394.946 117.085l4.2-2.715 22.155 34.272-4.2 2.715z" fill="#264182" opacity="1" data-original="#264182"></path><path d="m396.684 152.176 21.668-40.93 4.42 2.34-21.668 40.93z" fill="#264182" opacity="1" data-original="#264182"></path><path d="m389.837 136.68.14-5 37.4 1.048-.14 5zM54.528 359.06l3.04-3.97 45.655 34.96-3.04 3.97z" fill="#264182" opacity="1" data-original="#264182"></path><path d="m74.533 406.223 9.403-64.647 4.95.72-9.403 64.647z" fill="#264182" opacity="1" data-original="#264182"></path><path d="m54.528 383.044 50.118-16.337 1.55 4.755-50.118 16.337z" fill="#264182" opacity="1" data-original="#264182"></path></g></g></svg>
